<?xml version="1.0" standalone="no"?><!DOCTYPE svg PUBLIC "-//W3C//DTD SVG 1.1//EN" "http://www.w3.org/Graphics/SVG/1.1/DTD/svg11.dtd"><svg t="1747296316776" class="icon" viewBox="0 0 1024 1024" version="1.1" xmlns="http://www.w3.org/2000/svg" p-id="1958" xmlns:xlink="http://www.w3.org/1999/xlink" width="512" height="512"><path d="M332.315927 963.677091a9.662836 9.662836 0 0 1-9.327709-12.176291l4.5056-16.700509a112.379345 112.379345 0 0 0-13.554036-89.274182 131.146473 131.146473 0 0 1-14.503564-109.623854l28.2624-90.298182a9.644218 9.644218 0 1 1 18.432 5.771636l-28.243782 90.298182a111.932509 111.932509 0 0 0 12.343855 93.500509 131.798109 131.798109 0 0 1 15.918545 104.671418l-4.5056 16.681891a9.681455 9.681455 0 0 1-9.327709 7.130764zM611.439709 963.677091a9.662836 9.662836 0 0 1-9.476654-11.561891l5.771636-28.634764a44.087855 44.087855 0 0 0-14.969018-42.542545 63.0784 63.0784 0 0 1-17.873455-72.983273l46.470982-111.895273a9.662836 9.662836 0 0 1 17.8176 7.391419l-46.4896 111.913891c-7.447273 17.929309-2.438982 38.334836 12.436945 50.753163a63.301818 63.301818 0 0 1 21.522619 61.179346l-5.771637 28.616145a9.6256 9.6256 0 0 1-9.439418 7.745164z" fill="#4D5471" p-id="1959"></path><path d="M375.826618 652.101818l-36.230982-36.2496a10.295855 10.295855 0 0 0-14.559418 0l-36.230982 36.2496a10.295855 10.295855 0 0 0 7.261091 17.575564h72.480582c9.160145 0 13.777455-11.096436 7.261091-17.575564z" fill="#F4BC5F" p-id="1960"></path><path d="M372.214691 648.471273l-32.619055-32.619055a10.295855 10.295855 0 0 0-14.559418 0l-32.619054 32.637673z" fill="#F7CC6D" p-id="1961"></path><path d="M521.439418 359.852218c0 104.448-84.675491 271.1552-189.123491 271.1552s-189.160727-166.688582-189.160727-271.1552S227.886545 170.710109 332.334545 170.710109s189.123491 84.675491 189.123491 189.142109z" fill="#F7CC6D" p-id="1962"></path><path d="M388.189091 277.950836v62.743273a167.619491 167.619491 0 0 1-167.619491 167.600873c-16.905309 0-26.959127 18.8416-17.687273 32.954182 33.847855 51.423418 79.350691 89.739636 129.4336 89.739636 104.448 0 189.123491-166.669964 189.123491-271.136582 0-43.324509-14.559418-83.241891-39.060945-115.134836-30.440727-39.600873-94.208-16.700509-94.208 33.233454z" fill="#F4BC5F" p-id="1963"></path><path d="M291.821382 295.060945c0 37.366691-50.566982 88.157091-76.893091 88.157091s-25.618618-30.291782-25.618618-67.658472 21.336436-67.658473 47.662545-67.658473 54.849164 9.793164 54.849164 47.159854zM302.061382 401.798982c0 14.708364-19.921455 34.741527-30.291782 34.741527s-10.091055-11.934255-10.091055-26.661236c0-14.708364 8.415418-26.661236 18.785746-26.661237 10.370327 0 21.597091 3.872582 21.597091 18.580946z" fill="#F9D78D" p-id="1964"></path><path d="M407.216873 583.437964c34.816-30.757236 63.543855-77.433018 82.087563-125.561019" fill="#F4BC5F" p-id="1965"></path><path d="M407.216873 591.648582a8.192 8.192 0 0 1-5.436509-14.336c31.557818-27.890036 60.658036-72.4992 79.872-122.377309a8.192 8.192 0 1 1 15.304145 5.883345c-20.424145 53.0432-50.343564 98.769455-84.303127 128.763346a8.192 8.192 0 0 1-5.436509 2.048z" fill="#F9D78D" p-id="1966"></path><path d="M418.909091 592.374691c-44.944291-50.529745-101.766982-174.228945-101.766982-271.453091 0-55.202909 17.761745-105.993309 47.885964-147.307055 77.433018 13.5168 141.312 76.1856 153.674472 154.456437 14.484945 76.036655-31.036509 201.876945-99.793454 264.303709z" fill="#F4BC5F" p-id="1967"></path><path d="M521.4208 359.926691c0 73.355636-41.704727 177.245091-102.530327 232.448-1.545309-1.731491-2.885818-3.667782-4.431128-5.585455a8.564364 8.564364 0 0 1-1.545309-2.122472 66.448291 66.448291 0 0 1-2.904436-3.872582 17.873455 17.873455 0 0 1-2.699636 2.699636l2.122472-3.2768c-1.359127-1.936291-2.904436-3.853964-4.244945-5.790254-0.372364-0.577164-0.577164-0.968145-0.968146-1.545309-2.699636-3.667782-5.213091-7.521745-7.912727-11.394328v-0.186182c-21.634327-32.823855-39.582255-69.706473-52.894254-106.570472a166.818909 166.818909 0 0 0 44.776727-114.110837v-62.743272c0-47.681164 58.312145-70.656 89.981673-38.036946 0.558545 0.372364 0.968145 0.968145 1.340509 1.545309 0.968145 0.968145 1.936291 2.122473 2.904436 3.2768a13.051345 13.051345 0 0 1 1.340509 2.122473A165.087418 165.087418 0 0 1 502.690909 277.876364c1.340509 2.904436 2.699636 5.585455 3.853964 8.489891 2.513455 5.604073 4.635927 11.208145 6.367418 17.184581 0 0.186182 0.186182 0.390982 0.186182 0.577164 1.359127 4.244945 2.513455 8.694691 3.4816 13.330618 0.781964 3.462982 1.545309 6.944582 2.122472 10.612364 0.781964 4.058764 1.359127 8.303709 1.75011 12.548654v0.968146l0.558545 5.213091c0.2048 4.244945 0.4096 8.694691 0.4096 13.125818z" fill="#E2AB5A" p-id="1968"></path><path d="M687.9232 698.032873l-47.997673-47.997673a13.628509 13.628509 0 0 0-19.288436 0l-47.997673 47.997673a13.628509 13.628509 0 0 0 9.644218 23.272727h95.995346c12.139055 0 18.245818-14.689745 9.644218-23.272727z" fill="#529FFB" p-id="1969"></path><path d="M683.138327 693.248l-43.2128-43.2128a13.647127 13.647127 0 0 0-19.288436 0l-43.2128 43.194182z" fill="#63AFFA" p-id="1970"></path><path d="M880.826182 310.8864c0 138.388945-112.174545 359.200582-250.544873 359.200582s-250.563491-220.811636-250.563491-359.200582S491.892364 60.341527 630.281309 60.341527 880.826182 172.516073 880.826182 310.8864z" fill="#63AFFA" p-id="1971"></path><path d="M704.288582 202.379636v83.111564c0 122.637964-99.421091 222.040436-222.040437 222.040436-22.397673 0-35.709673 24.966982-23.403054 43.678255 44.813964 68.105309 105.081018 118.877091 171.436218 118.877091 138.370327 0 250.544873-220.811636 250.544873-359.200582 0-57.381236-19.288436-110.275491-51.758546-152.501527-40.326982-52.466036-124.779055-22.155636-124.779054 44.013382z" fill="#529FFB" p-id="1972"></path><path d="M576.623709 225.0752c0 49.487127-66.9696 116.773236-101.841454 116.773236-34.871855 0-33.959564-40.122182-33.959564-89.627927s28.281018-89.627927 63.152873-89.627927 72.648145 12.976873 72.648145 62.482618zM590.196364 366.461673c0 19.511855-26.363345 46.005527-40.103564 46.005527s-13.386473-15.806836-13.386473-35.300073c0-19.511855 11.152291-35.318691 24.892509-35.318691 13.7216 0 28.616145 5.12 28.616146 24.613237z" fill="#82C8FB" p-id="1973"></path><path d="M688.7424 596.228655a19.307055 19.307055 0 0 1 1.675636-27.257019c40.773818-36.026182 78.512873-93.910109 103.517091-158.813091a19.307055 19.307055 0 0 1 36.0448 13.870546c-27.573527 71.549673-68.049455 133.306182-113.999127 173.893818-7.9872 7.037673-20.163491 6.330182-27.2384-1.694254z" fill="#82C8FB" p-id="1974"></path><path d="M486.790982 143.695127a10.8544 10.8544 0 0 1 2.476218-15.173818 259.630545 259.630545 0 0 1 152.333964-48.965818 10.873018 10.873018 0 1 1 0 21.746036 237.940364 237.940364 0 0 0-139.636364 44.869818 10.873018 10.873018 0 0 1-15.173818-2.476218z" fill="#82C8FB" p-id="1975"></path></svg>