<?xml version="1.0" standalone="no"?><!DOCTYPE svg PUBLIC "-//W3C//DTD SVG 1.1//EN" "http://www.w3.org/Graphics/SVG/1.1/DTD/svg11.dtd"><svg t="1746010203848" class="icon" viewBox="0 0 1024 1024" version="1.1" xmlns="http://www.w3.org/2000/svg" p-id="4797" xmlns:xlink="http://www.w3.org/1999/xlink" width="512" height="512"><path d="M486.826667 6.4L68.053333 238.08c-15.786667 8.533333-25.386667 24.746667-25.386666 42.026667v463.573333c0 17.28 9.6 33.28 25.386666 42.026667L486.826667 1017.6c15.573333 8.533333 34.986667 8.533333 50.56 0l418.773333-231.893333c15.573333-8.746667 25.173333-24.746667 25.173333-42.026667V280.106667c0-17.28-9.6-33.28-25.386666-42.026667L537.386667 6.4c-7.893333-4.266667-16.64-6.4-25.386667-6.4-8.746667 0-17.493333 2.133333-25.173333 6.4" fill="#388E3C" p-id="4798"></path><path d="M486.826667 6.4L42.666667 743.68c0 17.28 9.6 33.28 25.386666 42.026667L486.826667 1017.6c15.573333 8.533333 34.986667 8.533333 50.56 0L981.333333 280.106667c0-17.28-9.6-33.28-25.386666-42.026667L537.386667 6.4c-7.893333-4.266667-16.64-6.4-25.386667-6.4-8.746667 0-17.493333 2.133333-25.173333 6.4" fill="#2E7D32" p-id="4799"></path><path d="M486.826667 6.4L68.053333 238.08c-15.786667 8.533333-25.386667 24.746667-25.386666 42.026667L486.826667 1017.6c15.573333 8.533333 34.986667 8.533333 50.56 0l418.773333-231.893333c15.573333-8.746667 25.173333-24.746667 25.173333-42.026667L537.386667 6.4c-7.893333-4.266667-16.64-6.4-25.386667-6.4-8.746667 0-17.493333 2.133333-25.173333 6.4" fill="#4CAF50" p-id="4800"></path></svg>